<?xml version="1.0"?>
<svg xmlns="http://www.w3.org/2000/svg" xmlns:xlink="http://www.w3.org/1999/xlink" xmlns:svgjs="http://svgjs.com/svgjs" version="1.1" width="512" height="512" x="0" y="0" viewBox="0 0 24 24" style="enable-background:new 0 0 512 512" xml:space="preserve" class=""><rect width="24" height="24" fill="#b862ff" shape="square" transform="matrix(0.66,0,0,0.66,4.08,4.08)"/><g transform="matrix(0.7,0,0,0.7,3.600000000000005,3.600000000000005)"><g xmlns="http://www.w3.org/2000/svg"><g><path d="m21.5 24h-19c-1.378 0-2.5-1.121-2.5-2.5v-19c0-1.379 1.122-2.5 2.5-2.5h19c1.378 0 2.5 1.121 2.5 2.5v19c0 1.379-1.122 2.5-2.5 2.5zm-19-23c-.827 0-1.5.673-1.5 1.5v19c0 .827.673 1.5 1.5 1.5h19c.827 0 1.5-.673 1.5-1.5v-19c0-.827-.673-1.5-1.5-1.5z" fill="#ffffff" data-original="#000000" style="" class=""/></g></g><g xmlns="http://www.w3.org/2000/svg"><g><path d="m12 20c-.135 0-.265-.055-.359-.152l-7.249-7.478c-1.852-1.909-1.852-5.018 0-6.927.902-.93 2.102-1.443 3.379-1.443s2.478.513 3.379 1.443l.85.875.849-.875c.902-.93 2.102-1.443 3.38-1.443s2.478.513 3.379 1.443c1.852 1.909 1.852 5.018 0 6.927l-7.249 7.478c-.094.097-.224.152-.359.152zm-4.229-15c-1.004 0-1.949.404-2.661 1.139-1.479 1.526-1.479 4.01 0 5.536l6.89 7.106 6.89-7.106c1.479-1.526 1.479-4.01 0-5.536-1.424-1.469-3.899-1.469-5.323 0l-1.208 1.246c-.188.195-.529.195-.718 0l-1.208-1.246c-.712-.735-1.657-1.139-2.662-1.139z" fill="#ffffff" data-original="#000000" style="" class=""/></g></g></g></svg>
