<?xml version="1.0"?>
<svg xmlns="http://www.w3.org/2000/svg" xmlns:xlink="http://www.w3.org/1999/xlink" xmlns:svgjs="http://svgjs.com/svgjs" version="1.1" width="512" height="512" x="0" y="0" viewBox="0 0 212.681 212.681" style="enable-background:new 0 0 512 512" xml:space="preserve" class=""><g>
<g xmlns="http://www.w3.org/2000/svg">
	<rect x="0" y="27.251" style="" width="48.952" height="157.733" fill="#ffffff" data-original="#010002" class=""/>
	<rect x="59.83" y="43.568" style="" width="32.634" height="141.416" fill="#ffffff" data-original="#010002" class=""/>
	<rect x="107.873" y="78.922" style="" width="30.823" height="106.062" fill="#ffffff" data-original="#010002" class=""/>
	<path style="" d="M10.878,0.502h27.195c6.005,0,10.878,4.058,10.878,9.067v9.061H0c0,0,0-4.058,0-9.061   C0,4.559,4.873,0.502,10.878,0.502z" fill="#ffffff" data-original="#010002" class=""/>
	<path style="" d="M70.708,18.636h10.878c6.005,0,10.878,4.058,10.878,9.067v9.061H59.83c0,0,0-4.058,0-9.061   C59.83,22.693,64.698,18.636,70.708,18.636z" fill="#ffffff" data-original="#010002" class=""/>
	<path style="" d="M118.751,49.459h10.878c6.005,0,10.878,4.058,10.878,9.061v9.067h-32.634c0,0,0-4.058,0-9.067   C107.873,53.516,112.746,49.459,118.751,49.459z" fill="#ffffff" data-original="#010002" class=""/>
	<path style="" d="M209.524,182.542l-32.069,6.059l-26.26-138.957l32.069-6.059L209.524,182.542z M157.265,23.128   l10.688-2.018c5.901-1.115,11.444,1.969,12.368,6.891l1.686,8.904l-32.069,6.054c0,0-0.756-3.987-1.686-8.904   C147.322,29.138,151.358,24.243,157.265,23.128z M210.867,189.662c0,0,0.745,3.987,1.681,8.915   c0.93,4.917-3.106,9.812-9.007,10.927l-10.688,2.023c-5.901,1.115-11.444-1.964-12.374-6.897l-1.686-8.904L210.867,189.662z" fill="#ffffff" data-original="#010002" class=""/>
	<path style="" d="M140.507,194.051c0,0,0,4.058,0,9.061c0,5.009-4.873,9.067-10.878,9.067h-10.878   c-6.005,0-10.878-4.058-10.878-9.067v-9.061H140.507z" fill="#ffffff" data-original="#010002" class=""/>
	<path style="" d="M92.464,194.051c0,0,0,4.058,0,9.061c0,5.009-4.873,9.067-10.878,9.067H70.708   c-6.01,0-10.878-4.058-10.878-9.067v-9.061H92.464z" fill="#ffffff" data-original="#010002" class=""/>
	<path style="" d="M48.952,194.051c0,0,0,4.058,0,9.061c0,5.009-4.873,9.067-10.878,9.067H10.878   C4.873,212.179,0,208.122,0,203.112v-9.061H48.952z" fill="#ffffff" data-original="#010002" class=""/>
</g>
<g xmlns="http://www.w3.org/2000/svg">
</g>
<g xmlns="http://www.w3.org/2000/svg">
</g>
<g xmlns="http://www.w3.org/2000/svg">
</g>
<g xmlns="http://www.w3.org/2000/svg">
</g>
<g xmlns="http://www.w3.org/2000/svg">
</g>
<g xmlns="http://www.w3.org/2000/svg">
</g>
<g xmlns="http://www.w3.org/2000/svg">
</g>
<g xmlns="http://www.w3.org/2000/svg">
</g>
<g xmlns="http://www.w3.org/2000/svg">
</g>
<g xmlns="http://www.w3.org/2000/svg">
</g>
<g xmlns="http://www.w3.org/2000/svg">
</g>
<g xmlns="http://www.w3.org/2000/svg">
</g>
<g xmlns="http://www.w3.org/2000/svg">
</g>
<g xmlns="http://www.w3.org/2000/svg">
</g>
<g xmlns="http://www.w3.org/2000/svg">
</g>
</g></svg>
